<svg width="400" height="400" viewBox="0 0 400 400" fill="none" xmlns="http://www.w3.org/2000/svg">
<path fill-rule="evenodd" clip-rule="evenodd" d="M20 333V357H44C44 343.72 33.28 333 20 333ZM20 301V317C42.08 317 60 334.92 60 357H76C76 326.04 50.96 301 20 301ZM20 269V285C59.76 285 92 317.24 92 357H108C108 308.36 68.56 269 20 269ZM180 213H36C27.2 213 20 220.2 20 229V253H36V229H180V341H124V357H180C188.8 357 196 349.8 196 341V229C196 220.2 188.8 213 180 213Z" fill="white"/>
<path fill-rule="evenodd" clip-rule="evenodd" d="M165.355 162.822C170.965 153.043 176.813 143.726 182.807 134.946C193.353 134.112 204.287 133.673 215.5 133.673C226.713 133.673 237.647 134.112 248.193 134.946C254.187 143.726 260.035 153.043 265.645 162.822C271.26 172.611 276.356 182.376 280.918 192C276.356 201.624 271.26 211.389 265.645 221.178C260.035 230.957 254.187 240.274 248.193 249.054C237.647 249.888 226.713 250.327 215.5 250.327C215.333 250.327 215.167 250.327 215 250.327V259.054C215.167 259.054 215.333 259.054 215.5 259.054C224.415 259.054 233.172 258.782 241.717 258.257C233.114 270.114 224.288 280.847 215.5 290.25C215.333 290.071 215.167 289.892 215 289.713V303.325C215.167 303.159 215.333 302.992 215.5 302.825C221.129 308.462 226.737 313.565 232.26 318.084C244.762 328.311 257.023 335.695 268.301 339.367C279.581 343.04 290.364 343.135 299.264 337.963C308.156 332.796 313.453 323.368 315.928 311.722C318.404 300.071 318.182 285.703 315.634 269.696C314.505 262.603 312.912 255.141 310.868 247.393C318.548 245.301 325.758 242.961 332.42 240.401C347.474 234.615 359.957 227.619 368.752 219.628C377.548 211.636 383 202.306 383 192C383 181.694 377.548 172.364 368.752 164.372C359.957 156.381 347.474 149.385 332.42 143.599C325.758 141.039 318.548 138.699 310.868 136.607C312.912 128.859 314.505 121.397 315.634 114.304C318.182 98.2965 318.404 83.9288 315.928 72.2778C313.453 60.6324 308.156 51.2041 299.264 46.0372C290.364 40.8653 279.581 40.9601 268.301 44.6328C257.023 48.3051 244.762 55.6889 232.26 65.9161C226.737 70.4346 221.129 75.5384 215.5 81.1746C209.871 75.5384 204.263 70.4346 198.74 65.9161C186.238 55.6889 173.977 48.3051 162.699 44.6328C151.419 40.9601 140.636 40.8653 131.736 46.0372C122.844 51.2042 117.547 60.6324 115.072 72.2779C112.596 83.9288 112.818 98.2966 115.366 114.304C116.495 121.397 118.088 128.859 120.132 136.607C112.452 138.699 105.242 141.039 98.5801 143.599C83.5257 149.385 71.043 156.381 62.2481 164.372C53.4517 172.364 48 181.694 48 192C48 192.671 48.0231 193.338 48.0687 194H56.8456C56.7789 193.332 56.7457 192.665 56.7457 192C56.7457 184.994 60.4234 177.832 68.1363 170.824C75.8508 163.815 87.2575 157.302 101.723 151.743C108.117 149.286 115.064 147.032 122.491 145.011C126.932 159.941 132.944 175.783 140.431 192C140.123 192.667 139.817 193.334 139.514 194H151.037C150.716 193.333 150.398 192.666 150.082 192C154.644 182.376 159.74 172.611 165.355 162.822ZM214.571 222.585C212.194 207.735 200.202 196.096 185.18 194.254C185.126 193.51 185.099 192.758 185.099 192C185.099 175.101 198.71 161.401 215.5 161.401C232.29 161.401 245.901 175.101 245.901 192C245.901 208.899 232.29 222.599 215.5 222.599C215.189 222.599 214.88 222.594 214.571 222.585ZM157.765 158.487C162.23 150.703 166.85 143.194 171.583 135.996C157.089 137.568 143.449 139.896 130.973 142.854C134.664 155.209 139.478 168.261 145.371 181.68C149.184 173.988 153.318 166.239 157.765 158.487ZM215.5 124.946C206.585 124.946 197.828 125.218 189.283 125.743C197.886 113.886 206.712 103.153 215.5 93.7504C224.288 103.153 233.114 113.886 241.717 125.743C233.172 125.218 224.415 124.946 215.5 124.946ZM177.95 126.597C188.164 111.959 198.794 98.7938 209.425 87.4552C203.955 81.9706 198.523 77.0238 193.195 72.665C181.176 62.8328 169.869 56.1474 159.986 52.9293C150.104 49.7116 142.132 50.0947 136.137 53.5786C130.133 57.0673 125.805 63.8428 123.628 74.0882C121.452 84.3281 121.552 97.5382 124.003 112.935C125.088 119.75 126.626 126.947 128.605 134.446C143.658 130.857 160.276 128.18 177.95 126.597ZM253.05 126.597C242.836 111.959 232.206 98.7938 221.575 87.4552C227.045 81.9706 232.477 77.0238 237.805 72.665C249.824 62.8328 261.131 56.1474 271.014 52.9293C280.896 49.7116 288.868 50.0947 294.863 53.5785C300.867 57.0673 305.195 63.8428 307.372 74.0882C309.548 84.3281 309.448 97.5382 306.997 112.935C305.912 119.75 304.374 126.947 302.395 134.446C287.342 130.857 270.724 128.18 253.05 126.597ZM259.417 135.996C273.911 137.568 287.551 139.896 300.027 142.854C296.336 155.209 291.522 168.261 285.629 181.68C281.816 173.988 277.682 166.239 273.235 158.487C268.77 150.703 264.15 143.194 259.417 135.996ZM308.509 145.011C304.068 159.941 298.056 175.783 290.569 192C298.056 208.217 304.068 224.059 308.509 238.989C315.936 236.968 322.883 234.714 329.277 232.257C343.742 226.698 355.149 220.185 362.864 213.176C370.577 206.168 374.254 199.006 374.254 192C374.254 184.994 370.577 177.832 362.864 170.824C355.149 163.815 343.742 157.302 329.277 151.743C322.883 149.286 315.936 147.032 308.509 145.011ZM273.235 225.513C277.682 217.761 281.816 210.012 285.629 202.32C291.522 215.739 296.336 228.791 300.027 241.146C287.551 244.104 273.911 246.432 259.417 248.004C264.15 240.806 268.77 233.297 273.235 225.513ZM253.05 257.403C270.724 255.82 287.342 253.143 302.395 249.554C304.374 257.053 305.912 264.25 306.997 271.065C309.448 286.462 309.548 299.672 307.372 309.912C305.195 320.157 300.867 326.933 294.863 330.421C288.868 333.905 280.896 334.288 271.014 331.071C261.131 327.853 249.824 321.167 237.805 311.335C232.477 306.976 227.045 302.029 221.575 296.545C232.206 285.206 242.836 272.041 253.05 257.403Z" fill="#61DAFB"/>
</svg>
